<?xml version="1.0" standalone="no"?><!DOCTYPE svg PUBLIC "-//W3C//DTD SVG 1.1//EN" "http://www.w3.org/Graphics/SVG/1.1/DTD/svg11.dtd"><svg t="1522816127520" class="icon" style="" viewBox="0 0 1024 1024" version="1.1" xmlns="http://www.w3.org/2000/svg" p-id="2309" xmlns:xlink="http://www.w3.org/1999/xlink" width="200" height="200"><defs><style type="text/css"></style></defs><path d="M577.6 951.3l98.7-268.4 268.4-98.7-563.4-185.3 196.3 552.4zM659 635.9l-21.7 8-8 21.7-51 138.6-115.8-326 330.1 108.6L659 635.9zM361.3 872.1c34.2 14.5 70 23.9 106.8 28.1v50.3c-221.9-22.5-395-209.9-395-437.7 0-243 197-440 440-440 227.8 0 415.2 173.1 437.7 395h-50.3c-4.2-36.8-13.6-72.6-28.1-106.8-19.6-46.4-47.8-88.1-83.6-124-35.8-35.8-77.5-64-124-83.6-48-20.3-99.1-30.6-151.8-30.6-52.7 0-103.7 10.3-151.8 30.6-46.4 19.6-88.1 47.8-124 83.6-35.8 35.8-64 77.5-83.6 124-20.3 48-30.6 99.1-30.6 151.8 0 52.7 10.3 103.7 30.6 151.8 19.6 46.4 47.8 88.1 83.6 124 36 35.7 77.7 63.8 124.1 83.5z" fill="#ffffff" p-id="2310"></path></svg>