<?xml version="1.0" standalone="no"?><!DOCTYPE svg PUBLIC "-//W3C//DTD SVG 1.1//EN" "http://www.w3.org/Graphics/SVG/1.1/DTD/svg11.dtd"><svg t="1522812969338" class="icon" style="" viewBox="0 0 1024 1024" version="1.1" xmlns="http://www.w3.org/2000/svg" p-id="1501" xmlns:xlink="http://www.w3.org/1999/xlink" width="200" height="200"><defs><style type="text/css"></style></defs><path d="M284.444444 284.444444C159.288889 284.444444 56.888889 386.844444 56.888889 512s102.4 227.555556 227.555555 227.555556 227.555556-102.4 227.555556-227.555556-102.4-227.555556-227.555556-227.555556m0 398.222223c-96.711111 0-170.666667-73.955556-170.666666-170.666667s73.955556-170.666667 170.666666-170.666667 170.666667 73.955556 170.666667 170.666667-73.955556 170.666667-170.666667 170.666667M824.888889 56.888889C745.244444 56.888889 682.666667 119.466667 682.666667 199.111111S745.244444 341.333333 824.888889 341.333333 967.111111 278.755556 967.111111 199.111111 904.533333 56.888889 824.888889 56.888889m0 227.555555c-45.511111 0-85.333333-39.822222-85.333333-85.333333S779.377778 113.777778 824.888889 113.777778s85.333333 39.822222 85.333333 85.333333S870.4 284.444444 824.888889 284.444444M824.888889 682.666667c-79.644444 0-142.222222 62.577778-142.222222 142.222222s62.577778 142.222222 142.222222 142.222222 142.222222-62.577778 142.222222-142.222222-62.577778-142.222222-142.222222-142.222222m0 227.555555c-45.511111 0-85.333333-39.822222-85.333333-85.333333s39.822222-85.333333 85.333333-85.333333 85.333333 39.822222 85.333333 85.333333-39.822222 85.333333-85.333333 85.333333" fill="#333333" p-id="1502"></path><path d="M452.380444 578.218667l295.594667 170.666666-28.444444 49.265778-295.594667-170.666667zM749.511111 278.300444l-295.594667 170.666667-28.444444-49.265778 295.594667-170.666666z" fill="#333333" p-id="1503"></path></svg>